<svg width="105" height="108" viewBox="0 0 105 108" fill="none" xmlns="http://www.w3.org/2000/svg">
<path d="M52.5 105C81.4949 105 105 81.4949 105 52.5C105 23.5051 81.4949 0 52.5 0C23.5051 0 0 23.5051 0 52.5C0 81.4949 23.5051 105 52.5 105Z" fill="#E6E9EF"/>
<rect x="27.94" y="37.9537" width="45.0992" height="68.9855" rx="2.06" fill="white"/>
<rect x="33.0896" y="43.7241" width="34.8937" height="9.35719" rx="2" fill="#EFEFEF"/>
<rect x="33.0896" y="57.3633" width="34.8937" height="4.03895" rx="2" fill="#EFEFEF"/>
<rect x="33.0896" y="88.2786" width="34.8937" height="4.03898" rx="2" fill="#EFEFEF"/>
<rect x="33.0896" y="65.2437" width="19.2143" height="19.4967" rx="2" fill="#EFEFEF"/>
<rect x="56.2323" y="65.2437" width="11.4749" height="19.4967" rx="2" fill="#EFEFEF"/>
<rect x="27.94" y="37.9537" width="45.0992" height="68.9855" rx="2.06" stroke="#B8C0CC" stroke-width="1.88"/>
<path d="M61.375 96.449V66.7312L82 87.8864H70.5565L61.375 96.449Z" fill="white" stroke="#EC008C" stroke-width="1.88" stroke-linejoin="round"/>
<path d="M43.9061 28.6478C44.4961 28.6478 44.7912 28.9053 44.7912 29.4204C44.7912 29.9556 44.4961 30.2232 43.9061 30.2232H38.3008C38.0452 30.2232 37.8436 30.1475 37.6961 29.996C37.5485 29.8344 37.4748 29.6375 37.4748 29.4052C37.4748 29.1023 37.5879 28.8296 37.8141 28.5872L41.1772 24.876C41.5902 24.4114 41.8902 23.9873 42.077 23.6035C42.2737 23.2097 42.372 22.8209 42.372 22.4371C42.372 21.9625 42.2393 21.5989 41.9738 21.3464C41.7083 21.094 41.3297 20.9677 40.838 20.9677C40.4348 20.9677 40.0414 21.0485 39.6579 21.2101C39.2842 21.3616 38.9056 21.5737 38.5221 21.8463C38.4238 21.917 38.3254 21.9776 38.2271 22.0281C38.1287 22.0685 38.0304 22.0887 37.9321 22.0887C37.7649 22.0887 37.6174 22.0079 37.4895 21.8463C37.3715 21.6848 37.3125 21.4929 37.3125 21.2707C37.3125 21.1192 37.3371 20.9879 37.3863 20.8769C37.4453 20.7658 37.5338 20.6597 37.6518 20.5587C38.0845 20.2053 38.5909 19.9276 39.1711 19.7256C39.7513 19.5135 40.3315 19.4075 40.9117 19.4075C41.9246 19.4075 42.731 19.6701 43.3308 20.1952C43.9405 20.7203 44.2454 21.4272 44.2454 22.3159C44.2454 22.9319 44.1175 23.5126 43.8619 24.058C43.6062 24.5932 43.1735 25.1941 42.5638 25.8606L40.0119 28.6478H43.9061Z" fill="#B8C0CC"/>
<path d="M53.1635 26.618C53.4585 26.618 53.6798 26.6836 53.8273 26.8149C53.9748 26.9462 54.0485 27.133 54.0485 27.3754C54.0485 27.8803 53.7535 28.1328 53.1635 28.1328H52.4112V29.3295C52.4112 29.6426 52.3227 29.8849 52.1457 30.0566C51.9785 30.2283 51.7572 30.3141 51.4819 30.3141C51.2065 30.3141 50.9804 30.2283 50.8034 30.0566C50.6362 29.8849 50.5526 29.6426 50.5526 29.3295V28.1328H46.6879C46.4224 28.1328 46.2159 28.0571 46.0684 27.9056C45.9209 27.744 45.8471 27.5471 45.8471 27.3148C45.8471 27.0724 45.9258 26.8402 46.0831 26.618L50.6411 19.8922C50.7394 19.7509 50.8624 19.6448 51.0099 19.5741C51.1574 19.4933 51.3098 19.4529 51.4671 19.4529C51.7228 19.4529 51.9441 19.5388 52.1309 19.7105C52.3178 19.8821 52.4112 20.1245 52.4112 20.4376V26.618H53.1635ZM47.809 26.618H50.5526V22.5431L47.809 26.618Z" fill="#B8C0CC"/>
<path d="M55.5621 30.7383C55.5031 30.9301 55.4097 31.0715 55.2818 31.1624C55.154 31.2533 55.0114 31.2987 54.8541 31.2987C54.6574 31.2987 54.4804 31.2281 54.323 31.0867C54.1755 30.9554 54.1018 30.7837 54.1018 30.5716C54.1018 30.4807 54.1165 30.3899 54.146 30.299L57.5682 19.2863C57.6272 19.0944 57.7206 18.9531 57.8485 18.8622C57.9763 18.7713 58.1189 18.7258 58.2762 18.7258C58.4729 18.7258 58.645 18.7965 58.7925 18.9379C58.9498 19.0692 59.0285 19.2409 59.0285 19.4529C59.0285 19.5438 59.0138 19.6347 58.9843 19.7256L55.5621 30.7383Z" fill="#B8C0CC"/>
<path d="M66.3077 19.5438C66.5633 19.5438 66.76 19.6196 66.8977 19.771C67.0354 19.9124 67.1042 20.0993 67.1042 20.3315C67.1042 20.5638 67.0354 20.8062 66.8977 21.0586L62.1922 29.8294C61.9955 30.1727 61.7251 30.3444 61.3809 30.3444C61.1449 30.3444 60.9335 30.2636 60.7466 30.102C60.5696 29.9304 60.4811 29.7233 60.4811 29.481C60.4811 29.3093 60.5303 29.1376 60.6286 28.9659L64.8621 21.1192H60.4074C59.8173 21.1192 59.5223 20.8617 59.5223 20.3467C59.5223 19.8114 59.8173 19.5438 60.4074 19.5438H66.3077Z" fill="#B8C0CC"/>
</svg>
