<svg width="105" height="108" viewBox="0 0 105 108" fill="none" xmlns="http://www.w3.org/2000/svg">
<path d="M52.5 105C81.4949 105 105 81.4949 105 52.5C105 23.5051 81.4949 0 52.5 0C23.5051 0 0 23.5051 0 52.5C0 81.4949 23.5051 105 52.5 105Z" fill="#E6E9EF"/>
<path d="M22.2374 33.4495H84.3619C87.8548 33.4495 90.5993 36.1871 90.5993 39.6714V101.642C90.5993 105.126 87.8548 107.864 84.3619 107.864H22.2374C18.7445 107.864 16 105.126 16 101.642V39.6714C16 36.3115 18.7445 33.4495 22.2374 33.4495Z" fill="#B8C0CC"/>
<path d="M22.968 47H83.4801C85.7121 47 87.4481 48.4843 87.4481 50.3397V100.806C87.4481 102.662 85.7121 104.146 83.4801 104.146H22.968C20.736 104.146 19 102.662 19 100.806V50.3397C19 48.4843 20.86 47 22.968 47Z" fill="white"/>
<path d="M33.6565 65.8011H25.5965C24.6045 65.8011 23.7365 64.9352 23.7365 63.9457V55.9057C23.7365 54.9161 24.6045 54.0503 25.5965 54.0503H33.6565C34.6485 54.0503 35.5165 54.9161 35.5165 55.9057V63.822C35.5165 64.9353 34.7725 65.8011 33.6565 65.8011Z" fill="#EFEFEF"/>
<path d="M49.7765 65.8011H41.7165C40.7245 65.8011 39.8565 64.9352 39.8565 63.9457V55.9057C39.8565 54.9161 40.7245 54.0503 41.7165 54.0503H49.7765C50.7685 54.0503 51.6365 54.9161 51.6365 55.9057V63.822C51.6365 64.9353 50.7685 65.8011 49.7765 65.8011Z" fill="#EFEFEF"/>
<path d="M33.6565 82.2525H25.5965C24.6045 82.2525 23.7365 81.3867 23.7365 80.3971V72.3571C23.7365 71.3676 24.6045 70.5017 25.5965 70.5017H33.6565C34.6485 70.5017 35.5165 71.3676 35.5165 72.3571V80.3971C35.5165 81.3867 34.7725 82.2525 33.6565 82.2525Z" fill="#EFEFEF"/>
<path d="M49.7765 82.2525H41.7165C40.7245 82.2525 39.8565 81.3867 39.8565 80.3971V72.3571C39.8565 71.3676 40.7245 70.5017 41.7165 70.5017H49.7765C50.7685 70.5017 51.6365 71.3676 51.6365 72.3571V80.3971C51.6365 81.3867 50.7685 82.2525 49.7765 82.2525Z" fill="#EFEFEF"/>
<path d="M33.6565 98.8275H25.5965C24.6045 98.8275 23.7365 97.9616 23.7365 96.9721V88.9321C23.7365 87.9425 24.6045 87.0767 25.5965 87.0767H33.6565C34.6485 87.0767 35.5165 87.9425 35.5165 88.9321V96.9721C35.5165 97.9616 34.7725 98.8275 33.6565 98.8275Z" fill="#EFEFEF"/>
<path d="M49.7765 98.8275H41.7165C40.7245 98.8275 39.8565 97.9616 39.8565 96.9721V88.9321C39.8565 87.9425 40.7245 87.0767 41.7165 87.0767H49.7765C50.7685 87.0767 51.6365 87.9425 51.6365 88.9321V96.9721C51.6365 97.9616 50.7685 98.8275 49.7765 98.8275Z" fill="#EFEFEF"/>
<path d="M65.7725 82.2523H57.7125C56.7205 82.2523 55.8525 81.3864 55.8525 80.3969V72.3569C55.8525 71.3673 56.7205 70.5015 57.7125 70.5015H65.7725C66.7645 70.5015 67.6325 71.3673 67.6325 72.3569V80.3969C67.6325 81.3864 66.7645 82.2523 65.7725 82.2523Z" fill="#EFEFEF"/>
<path d="M81.6125 82.2523H73.5524C72.5604 82.2523 71.6924 81.3864 71.6924 80.3969V72.3569C71.6924 71.3673 72.5604 70.5015 73.5524 70.5015H81.6125C82.6045 70.5015 83.4725 71.3673 83.4725 72.3569V80.3969C83.4725 81.3864 82.6045 82.2523 81.6125 82.2523Z" fill="#EFEFEF"/>
<path d="M81.6125 99.0748H73.5524C72.5604 99.0748 71.6924 98.2089 71.6924 97.2194V89.1794C71.6924 88.1898 72.5604 87.324 73.5524 87.324H81.6125C82.6045 87.324 83.4725 88.1898 83.4725 89.1794V97.2194C83.4725 98.2089 82.6045 99.0748 81.6125 99.0748Z" fill="#EFEFEF"/>
<path d="M65.7725 98.8275H57.7125C56.7205 98.8275 55.8525 97.9616 55.8525 96.9721V88.9321C55.8525 87.9425 56.7205 87.0767 57.7125 87.0767H65.7725C66.7645 87.0767 67.6325 87.9425 67.6325 88.9321V96.9721C67.6325 97.9616 66.7645 98.8275 65.7725 98.8275Z" fill="#EFEFEF"/>
<path d="M66.0205 64.8611H57.9605C57.4855 64.8611 57.0405 64.4139 57.0405 63.9457V55.9057C57.0405 55.4375 57.4855 54.9903 57.9605 54.9903H66.0205C66.4956 54.9903 66.9405 55.4375 66.9405 55.9057V63.822C66.9405 64.4537 66.4566 64.8611 66.0205 64.8611Z" stroke="#EC008C" stroke-width="1.88"/>
<path d="M82.0166 65.8011H73.9566C72.9646 65.8011 72.0966 64.9352 72.0966 63.9457V55.9057C72.0966 54.9161 72.9646 54.0503 73.9566 54.0503H82.0166C83.0086 54.0503 83.8766 54.9161 83.8766 55.9057V63.822C83.8766 64.9353 83.1326 65.8011 82.0166 65.8011Z" fill="#EFEFEF"/>
<path d="M30.3485 35.6271H29.7285C28.3645 35.6271 27.2485 34.5139 27.2485 33.1533V26.4739C27.2485 25.1132 28.3645 24 29.7285 24H30.3485C31.7125 24 32.8285 25.1132 32.8285 26.4739V33.1533C32.8285 34.5139 31.7125 35.6271 30.3485 35.6271Z" fill="#B8C0CC"/>
<path d="M76.8486 35.6271H76.2286C74.8646 35.6271 73.7486 34.5139 73.7486 33.1533V26.4739C73.7486 25.1132 74.8646 24 76.2286 24H76.8486C78.2126 24 79.3286 25.1132 79.3286 26.4739V33.1533C79.3286 34.5139 78.2126 35.6271 76.8486 35.6271Z" fill="#B8C0CC"/>
</svg>
