<svg width="105" height="109" viewBox="0 0 105 109" fill="none" xmlns="http://www.w3.org/2000/svg">
<g clip-path="url(#clip0)">
<path d="M52.5 105.88C81.4949 105.88 105 82.3748 105 53.3799C105 24.3849 81.4949 0.879883 52.5 0.879883C23.5051 0.879883 0 24.3849 0 53.3799C0 82.3748 23.5051 105.88 52.5 105.88Z" fill="#E6E9EF"/>
<rect x="10.94" y="34.94" width="74.1165" height="46.2936" rx="2.06" fill="white" stroke="#B8C0CC" stroke-width="1.88"/>
<rect x="46.9076" y="79.8263" width="2.63625" height="11.8337" fill="#B8C0CC"/>
<rect x="40.317" y="91.6608" width="2.62972" height="15.8175" rx="1" transform="rotate(-90 40.317 91.6608)" fill="#B8C0CC"/>
<path d="M48.5218 57.115C52.249 57.115 55.2706 54.2228 55.2706 50.6552C55.2706 47.0876 52.249 44.1954 48.5218 44.1954C44.7946 44.1954 41.773 47.0876 41.773 50.6552C41.773 54.2228 44.7946 57.115 48.5218 57.115Z" fill="white" stroke="#EC008C" stroke-width="1.88"/>
<path d="M56.6921 70.9641C56.9914 70.9667 57.2876 70.9048 57.5587 70.7832C57.8297 70.6615 58.0688 70.4833 58.2581 70.2613C58.4475 70.0394 58.5825 69.7797 58.6529 69.5011C58.7233 69.2226 58.7275 68.9326 58.6652 68.6523C58.1211 66.4693 56.8242 64.5253 54.9839 63.1346C53.1436 61.7439 50.8672 60.9874 48.5224 60.9874C46.1777 60.9874 43.9013 61.7439 42.0609 63.1346C40.2206 64.5253 38.9237 66.4693 38.3797 68.6523C38.3173 68.9326 38.3214 69.2226 38.3919 69.5011C38.4623 69.7797 38.5973 70.0394 38.7867 70.2613C38.9761 70.4833 39.2152 70.6615 39.4862 70.7832C39.7573 70.9048 40.0533 70.9667 40.3527 70.9641H56.6921Z" fill="white" stroke="#EC008C" stroke-width="1.88"/>
<path d="M95.5155 108.295H72.9504C71.1631 108.295 69.7481 106.884 69.7481 105.101V62.6826C69.7481 60.8997 71.1631 59.4883 72.9504 59.4883H95.5155C97.3028 59.4883 98.7178 60.8997 98.7178 62.6826V105.101C98.7178 106.884 97.3028 108.295 95.5155 108.295Z" fill="#B8C0CC"/>
<path d="M94.3848 103.392H74.1557C73.1768 103.392 72.3938 102.501 72.3938 101.387V65.1343C72.3938 64.02 73.1768 63.1285 74.1557 63.1285H94.3848C95.3637 63.1285 96.1467 64.02 96.1467 65.1343V101.387C96.1467 102.501 95.3637 103.392 94.3848 103.392Z" fill="white"/>
<path d="M84.3447 107.626C85.2495 107.626 85.983 106.895 85.983 105.992C85.983 105.09 85.2495 104.358 84.3447 104.358C83.4398 104.358 82.7063 105.09 82.7063 105.992C82.7063 106.895 83.4398 107.626 84.3447 107.626Z" fill="white"/>
</g>
<defs>
<clipPath id="clip0">
<rect width="105" height="108" fill="white" transform="translate(0 0.879883)"/>
</clipPath>
</defs>
</svg>
