<svg width="105" height="108" viewBox="0 0 105 108" fill="none" xmlns="http://www.w3.org/2000/svg">
<path d="M52.5 105C81.4949 105 105 81.4949 105 52.5C105 23.5051 81.4949 0 52.5 0C23.5051 0 0 23.5051 0 52.5C0 81.4949 23.5051 105 52.5 105Z" fill="#E6E9EF"/>
<path d="M56.9597 107.824H24.5933C22.0296 107.824 20 105.313 20 102.141V26.6825C20 23.5109 22.0296 21 24.5933 21H56.9597C59.5234 21 61.553 23.5109 61.553 26.6825V102.141C61.553 105.313 59.5234 107.824 56.9597 107.824Z" fill="#B8C0CC"/>
<path d="M56.5638 99.102H25.0958C23.5732 99.102 22.3551 97.5162 22.3551 95.5339V31.0437C22.3551 29.0614 23.5732 27.4756 25.0958 27.4756H56.5638C58.0864 27.4756 59.3045 29.0614 59.3045 31.0437V95.5339C59.3045 97.5162 58.0864 99.102 56.5638 99.102Z" fill="white"/>
<path d="M40.9367 106.865C42.2346 106.865 43.2868 105.816 43.2868 104.521C43.2868 103.226 42.2346 102.177 40.9367 102.177C39.6389 102.177 38.5867 103.226 38.5867 104.521C38.5867 105.816 39.6389 106.865 40.9367 106.865Z" fill="white"/>
<path d="M48.7346 25.3604H32.9253C32.6048 25.3604 32.2843 24.9639 32.2843 24.5674C32.2843 24.171 32.6048 23.7745 32.9253 23.7745H48.7346C49.0551 23.7745 49.3755 24.171 49.3755 24.5674C49.3755 24.9639 49.0551 25.3604 48.7346 25.3604Z" fill="white"/>
<path d="M82.0551 81.0744H35.5037C33.2114 81.0744 31.4481 79.3154 31.4481 77.0288V47.4787C31.4481 45.192 33.2114 43.4331 35.5037 43.4331H82.0551C84.3474 43.4331 86.1107 45.192 86.1107 47.4787V77.0288C86.1107 79.3154 84.3474 81.0744 82.0551 81.0744Z" fill="white" stroke="#B8C0CC" stroke-width="2" stroke-linejoin="round"/>
<path d="M40.6173 80.6246V90.2988L47.6706 80.6246H40.6173Z" fill="#B8C0CC"/>
<path d="M60.4341 54.0464C61.541 54.0464 62.4383 53.1283 62.4383 51.9958C62.4383 50.8634 61.541 49.9453 60.4341 49.9453C59.3272 49.9453 58.4299 50.8634 58.4299 51.9958C58.4299 53.1283 59.3272 54.0464 60.4341 54.0464Z" fill="#EC008C"/>
<path d="M64.2083 68.5582L65.1753 63.5618C65.5612 61.5337 65.147 59.4318 64.0231 57.7151C62.8993 55.9984 61.1573 54.8064 59.1772 54.3994C57.3458 54.0347 55.4476 54.4262 53.8974 55.4886C52.3472 56.5509 51.2709 58.1977 50.9035 60.0693L49.8154 65.3555C49.7942 65.4605 49.7451 65.5577 49.6738 65.6363L46.7505 68.865C46.6832 68.9418 46.6364 69.0352 46.6147 69.1359C46.593 69.2366 46.5971 69.3414 46.6266 69.4402C46.656 69.5388 46.7099 69.628 46.7829 69.6992C46.856 69.7703 46.9457 69.821 47.0435 69.8463L64.5209 74.1832C64.6167 74.2069 64.7168 74.2053 64.8119 74.1786C64.9068 74.1518 64.9936 74.1007 65.0639 74.0302C65.1344 73.9595 65.186 73.8718 65.214 73.7752C65.242 73.6784 65.2455 73.5761 65.2242 73.4777L64.2152 68.804C64.1966 68.7234 64.1943 68.6397 64.2083 68.5582Z" stroke="#EC008C" stroke-width="1.88" stroke-miterlimit="10"/>
<path d="M69.4605 64.7319C72.7651 64.7319 75.4439 61.9912 75.4439 58.6104C75.4439 55.2295 72.7651 52.4888 69.4605 52.4888C66.156 52.4888 63.4771 55.2295 63.4771 58.6104C63.4771 61.9912 66.156 64.7319 69.4605 64.7319Z" fill="#EC008C"/>
<path d="M69.1793 62.0664H69.0132C68.8357 62.0227 68.6824 61.909 68.5867 61.75C68.491 61.591 68.4607 61.3997 68.5024 61.218L69.5524 56.7362L69.0269 56.6093C68.8477 56.5648 68.6926 56.4506 68.5943 56.291C68.4959 56.1314 68.4623 55.9389 68.5004 55.7543C68.5385 55.5698 68.6454 55.4077 68.7984 55.3024C68.9514 55.1971 69.1384 55.1569 69.3199 55.1903H69.3404L71.2196 55.643L69.8385 61.5098C69.8056 61.6647 69.7228 61.804 69.6031 61.905C69.4836 62.0059 69.3343 62.0628 69.1793 62.0664Z" fill="white"/>
<path d="M49.328 65.516L64.2113 68.8036" stroke="#EC008C" stroke-width="1.88" stroke-miterlimit="10"/>
</svg>
