<svg width="105" height="109" viewBox="0 0 105 109" fill="none" xmlns="http://www.w3.org/2000/svg">
<g clip-path="url(#clip0)">
<path d="M52.5 105.94C81.4949 105.94 105 82.4349 105 53.4399C105 24.445 81.4949 0.939941 52.5 0.939941C23.5051 0.939941 0 24.445 0 53.4399C0 82.4349 23.5051 105.94 52.5 105.94Z" fill="#E6E9EF"/>
<path d="M79.1577 62.0549C83.501 62.0549 87.022 58.5426 87.022 54.21C87.022 49.8775 83.501 46.3652 79.1577 46.3652C74.8144 46.3652 71.2933 49.8775 71.2933 54.21C71.2933 58.5426 74.8144 62.0549 79.1577 62.0549Z" fill="#FCFDFF" stroke="#B8C0CC" stroke-width="1.88"/>
<path d="M91.1033 77.7718C91.5332 77.7755 91.9586 77.6879 92.3478 77.516C92.7373 77.344 93.0805 77.092 93.3523 76.7782C93.6244 76.4644 93.8182 76.0973 93.9195 75.7033C94.0206 75.3096 94.0265 74.8996 93.9371 74.5032C93.1556 71.4171 91.293 68.6687 88.6498 66.7025C86.0068 64.7363 82.7374 63.6669 79.3698 63.6669C76.0023 63.6669 72.7329 64.7363 70.0898 66.7025C67.4467 68.6687 65.584 71.4171 64.8026 74.5032C64.7131 74.8996 64.719 75.3096 64.8202 75.7033C64.9214 76.0973 65.1153 76.4644 65.3873 76.7782C65.6593 77.092 66.0026 77.344 66.3919 77.516C66.7812 77.6879 67.2064 77.7755 67.6363 77.7718H91.1033Z" fill="#FCFDFF" stroke="#B8C0CC" stroke-width="1.88"/>
<path d="M25.418 62.0549C29.7613 62.0549 33.2823 58.5426 33.2823 54.21C33.2823 49.8775 29.7613 46.3652 25.418 46.3652C21.0747 46.3652 17.5536 49.8775 17.5536 54.21C17.5536 58.5426 21.0747 62.0549 25.418 62.0549Z" fill="#FCFDFF" stroke="#B8C0CC" stroke-width="1.88"/>
<path d="M37.3637 77.7718C37.7936 77.7755 38.219 77.6879 38.6082 77.516C38.9976 77.344 39.3409 77.092 39.6127 76.7782C39.8847 76.4644 40.0786 76.0973 40.1799 75.7033C40.281 75.3096 40.2868 74.8996 40.1975 74.5032C39.416 71.4171 37.5534 68.6687 34.9102 66.7025C32.2672 64.7363 28.9978 63.6669 25.6302 63.6669C22.2626 63.6669 18.9933 64.7363 16.3501 66.7025C13.707 68.6687 11.8444 71.4171 11.063 74.5032C10.9735 74.8996 10.9794 75.3096 11.0806 75.7033C11.1818 76.0973 11.3756 76.4644 11.6476 76.7782C11.9197 77.092 12.263 77.344 12.6523 77.516C13.0416 77.6879 13.4667 77.7755 13.8967 77.7718H37.3637Z" fill="#FCFDFF" stroke="#B8C0CC" stroke-width="1.88"/>
<path d="M51.6325 51.595C58.1474 51.595 63.4289 46.3266 63.4289 39.8277C63.4289 33.3289 58.1474 28.0605 51.6325 28.0605C45.1175 28.0605 39.8359 33.3289 39.8359 39.8277C39.8359 46.3266 45.1175 51.595 51.6325 51.595Z" fill="#FCFDFF" stroke="#B8C0CC" stroke-width="1.88"/>
<path d="M69.6327 77.7439C70.2682 77.7501 70.897 77.604 71.4724 77.3171C72.048 77.0302 72.5554 76.6096 72.9573 76.0861C73.3594 75.5625 73.646 74.9499 73.7957 74.2927C73.9451 73.6358 73.9538 72.9515 73.8217 72.2903C72.6665 67.1409 69.9131 62.5552 66.0059 59.2746C62.0989 55.994 57.2659 54.2096 52.2878 54.2096C47.3097 54.2096 42.4768 55.994 38.5696 59.2746C34.6625 62.5552 31.9091 67.1409 30.754 72.2903C30.6216 72.9515 30.6304 73.6358 30.78 74.2927C30.9296 74.9499 31.2161 75.5625 31.6182 76.0861C32.0203 76.6096 32.5278 77.0302 33.1033 77.3171C33.6788 77.604 34.3073 77.7501 34.9428 77.7439H69.6327Z" fill="#FCFDFF" stroke="#B8C0CC" stroke-width="1.88"/>
<path d="M52.6356 107.765C63.119 107.765 71.6175 99.5528 71.6175 89.4228C71.6175 79.2928 63.119 71.0808 52.6356 71.0808C42.1522 71.0808 33.6537 79.2928 33.6537 89.4228C33.6537 99.5528 42.1522 107.765 52.6356 107.765Z" fill="white" stroke="#EC008C" stroke-width="1.88"/>
<path d="M62.1266 83.6583L50.4931 95.1876L45.2537 89.907" stroke="#EC008C" stroke-width="1.88" stroke-linecap="round" stroke-linejoin="round"/>
</g>
<defs>
<clipPath id="clip0">
<rect width="105" height="108" fill="white" transform="translate(0 0.939941)"/>
</clipPath>
</defs>
</svg>
