<svg width="78" height="76" viewBox="0 0 78 76" fill="none" xmlns="http://www.w3.org/2000/svg">
<circle cx="45" cy="33" r="33" fill="#EAF9FF"/>
<path d="M39.0288 19.0074C36.1623 19.0074 34.1207 19.9695 32.3191 20.818C30.6685 21.5952 29.1092 22.3301 27.0007 22.3308C25.5649 22.3301 24.3847 21.9864 23.2565 21.5239C23.0461 21.4326 22.8358 21.3428 22.6262 21.2537C22.3118 21.1127 21.9982 20.9672 21.6816 20.818C20.0726 20.0601 18.2681 19.2175 15.8601 19.0446C15.5278 19.003 15.2313 18.9896 14.9742 19.0082C14.9734 19.0082 14.9727 19.0082 14.9712 19.0082C6.71563 19.0082 0 25.7158 0 33.9615C0 37.6219 1.26568 40.5177 2.48975 43.3185C3.63726 45.9448 4.72086 48.4242 4.85463 51.5397C4.88288 52.2019 4.90815 52.8952 4.93416 53.6115C5.2634 62.6746 5.71453 75.0869 14.1759 75.9837C14.2815 75.9948 14.3848 76 14.4866 76C17.4803 75.9993 18.6939 71.745 20.0986 66.8182C21.6051 61.5344 23.3129 55.5453 26.9591 55.4302C26.9599 55.4302 26.9628 55.4302 26.968 55.4302C26.9881 55.4295 27.0349 55.431 27.0401 55.4302C30.6863 55.5453 32.3935 61.5344 33.9007 66.8182C35.3053 71.745 36.519 76 39.5126 76C39.61 75.9963 39.7185 75.9948 39.8233 75.9837C48.2855 75.0869 48.7359 62.6746 49.0658 53.6115C49.0919 52.8952 49.1164 52.2011 49.1454 51.5397C49.2791 48.4242 50.3627 45.9441 51.5103 43.3185C52.7343 40.5177 54 37.6219 54 33.9615C54 25.7151 47.2844 19.0074 39.0288 19.0074ZM49.4776 42.4314C48.2996 45.1275 47.0807 47.9157 46.9291 51.444C46.9009 52.1113 46.8749 52.8091 46.8489 53.5306C46.5486 61.7838 46.1383 73.0864 39.5892 73.7797C38.2024 73.9438 37.014 69.6487 36.0337 66.211C34.3191 60.1982 32.3756 53.3822 27.1234 53.2166L26.9844 53.2137L26.8893 53.2159C21.6236 53.3822 19.6801 60.1974 17.9656 66.211C17.0039 69.5849 15.8058 73.7842 14.4866 73.7842C14.4613 73.7842 14.4361 73.7827 14.4108 73.7797C7.8624 73.0856 7.4514 61.7838 7.15115 53.5306C7.12513 52.8091 7.09987 52.1106 7.07088 51.444C6.91927 47.9157 5.70115 45.1275 4.52242 42.4314C3.337 39.7197 2.21773 37.158 2.21773 33.96C2.21773 26.9362 7.93895 21.2218 14.9712 21.2218C15.2774 21.2218 15.5702 21.2359 15.8541 21.2596C18.8574 21.7214 26.8685 25.5198 31.6614 28.0519C31.8264 28.1395 32.004 28.1803 32.1787 28.1803C32.5763 28.1803 32.9613 27.9658 33.1604 27.5902C33.4466 27.049 33.24 26.3787 32.6982 26.0929C32.0821 25.7678 30.8141 25.1056 29.2185 24.3121C30.745 23.9973 32.0233 23.405 33.2652 22.82C35.0103 21.9983 36.6595 21.221 39.0288 21.221C46.0611 21.221 51.7823 26.9354 51.7823 33.9593C51.7823 37.1587 50.663 39.7197 49.4776 42.4314Z" fill="#05284A"/>
<path d="M14.8505 26C10.5218 26 7 29.3003 7 33.3568C7 34.9774 7.50201 36.4118 8.36975 38.3412C8.55454 38.7525 8.98109 39 9.42921 39C9.57781 39 9.72949 38.9726 9.87501 38.9149C10.4594 38.684 10.7343 38.0526 10.4879 37.5042C9.7164 35.7884 9.29831 34.6195 9.29831 33.3561C9.29831 30.4865 11.7891 28.1524 14.8512 28.1524C15.4857 28.1524 16 27.6704 16 27.0758C15.9992 26.482 15.4849 26 14.8505 26Z" fill="#A7DAF9"/>
<path d="M62.8849 22.7709H55.1283C54.5127 22.7709 54.0137 23.2699 54.0137 23.8854C54.0137 24.501 54.5127 25 55.1283 25H62.8849C63.5005 25 63.9995 24.501 63.9995 23.8854C63.9995 23.2699 63.5005 22.7709 62.8849 22.7709Z" fill="#05284A"/>
<path d="M52.4683 21.6465C52.7537 21.6465 53.0391 21.5375 53.2564 21.3201L58.7413 15.8354C59.1768 15.4006 59.1768 14.6939 58.7413 14.2591C58.3058 13.8236 57.6005 13.8236 57.165 14.2591L51.6802 19.7438C51.2446 20.1786 51.2446 20.8853 51.6802 21.3201C51.8976 21.5375 52.1829 21.6465 52.4683 21.6465Z" fill="#05284A"/>
<path d="M49.1146 18.9863C49.7302 18.9863 50.2292 18.4873 50.2292 17.8718V10.1146C50.2292 9.49902 49.7302 9 49.1146 9C48.499 9 48 9.49902 48 10.1146V17.871C47.9993 18.4873 48.4983 18.9863 49.1146 18.9863Z" fill="#05284A"/>
<path d="M59.8629 60C60.1608 60 60.4358 59.837 60.5787 59.5732L61.0945 58.628C61.5352 57.8203 62.1931 57.1609 62.9954 56.7202L63.9381 56.2025C64.2 56.0592 64.3633 55.7831 64.3633 55.4841C64.3633 55.1851 64.2009 54.9091 63.9381 54.7658L62.9954 54.2472C62.1931 53.8074 61.5352 53.148 61.0945 52.3411L60.5787 51.395C60.293 50.8683 59.4327 50.8683 59.1471 51.395L58.6304 52.3411C58.1913 53.1471 57.5343 53.8065 56.7312 54.2481L55.7885 54.7658C55.5265 54.9091 55.3633 55.1851 55.3633 55.4841C55.3633 55.7831 55.5257 56.0592 55.7885 56.2025L56.7312 56.721C57.5343 57.1617 58.1913 57.8211 58.6313 58.6271L59.1471 59.5732C59.2899 59.837 59.565 60 59.8629 60ZM57.8551 55.4841C58.6672 54.9714 59.3519 54.2841 59.8629 53.4691C60.3746 54.2849 61.0594 54.9722 61.8707 55.4841C61.0594 55.9961 60.3746 56.6833 59.8629 57.4992C59.3519 56.6842 58.6672 55.9969 57.8551 55.4841Z" fill="#A7DAF9"/>
</svg>
