<svg width="84" height="76" viewBox="0 0 84 76" fill="none" xmlns="http://www.w3.org/2000/svg">
<circle cx="51" cy="43" r="33" fill="#EAF9FF"/>
<path d="M10.2217 48.5819C11.434 50.1361 12.0949 52.0492 12.1006 54.0202V62.7001C12.1006 63.5753 12.4483 64.4146 13.0672 65.0335C13.6861 65.6523 14.5255 66 15.4008 66H37.4019C38.2772 66 39.1166 65.6523 39.7355 65.0335C40.3544 64.4146 40.7021 63.5753 40.7021 62.7001V60.2361C44.2979 59.7222 47.7203 58.3616 50.6873 56.2663L59.5428 65.1321C60.1077 65.6874 60.8685 65.9981 61.6606 65.9969C62.4528 65.9956 63.2126 65.6826 63.7758 65.1255L65.13 63.7726C65.6874 63.2079 66 62.4464 66 61.6529C66 60.8595 65.6874 60.0979 65.13 59.5333L56.2701 50.6851C58.33 47.7756 59.6863 44.4278 60.2322 40.9051C60.7781 37.3824 60.4988 33.7811 59.4162 30.3847C58.3336 26.9883 56.4773 23.8896 53.9935 21.3325C51.5096 18.7754 48.466 16.8298 45.1023 15.6488V10.0873C45.1157 8.69844 44.6166 7.35335 43.7005 6.30928C42.7844 5.2652 41.5156 4.59541 40.1367 4.42798C39.3756 4.35341 38.6074 4.43834 37.881 4.67736C37.1546 4.91638 36.486 5.30423 35.918 5.81614C35.6158 4.97138 35.1098 4.21423 34.4448 3.61184C33.7799 3.00945 32.9766 2.58043 32.1061 2.36283C31.2356 2.14523 30.3249 2.14577 29.4547 2.36441C28.5845 2.58304 27.7817 3.01302 27.1175 3.6162C26.815 2.77014 26.308 2.01197 25.6417 1.40912C24.9754 0.806283 24.1704 0.377469 23.2984 0.16083C22.4263 -0.0558088 21.5142 -0.0535544 20.6432 0.167393C19.7722 0.38834 18.9694 0.821128 18.306 1.42726C17.863 1.82851 17.4888 2.29968 17.1983 2.82202C17.1015 2.72082 17.0014 2.62182 16.8958 2.52723C16.3271 2.01263 15.6573 1.62239 14.9291 1.38147C14.201 1.14054 13.4306 1.05423 12.6672 1.12806C11.288 1.29525 10.0189 1.96493 9.10261 3.00903C8.18628 4.05313 7.68705 5.39836 7.7004 6.78742V11.0696C5.5747 11.3403 3.62043 12.376 2.20314 13.9831C0.785844 15.5902 0.00262927 17.6585 0 19.8012L0 31.7799C0.00692348 34.2424 0.832777 36.6327 2.34752 38.5744L10.2217 48.5819ZM63.5745 62.2216L62.2214 63.5735C62.0707 63.7211 61.8681 63.8038 61.6571 63.8038C61.4461 63.8038 61.2435 63.7211 61.0928 63.5735L55.4275 57.902L57.9026 55.4271L63.5679 61.0853C63.7165 61.2359 63.8003 61.4386 63.8013 61.6501C63.8024 61.8617 63.7205 62.0652 63.5734 62.2172L63.5745 62.2216ZM56.3449 53.8695L53.872 56.3422L52.4353 54.9035C53.3193 54.1427 54.1452 53.3169 54.906 52.4329L56.3449 53.8695ZM58.303 37.4007C58.303 41.5343 57.0772 45.575 54.7805 49.0119C52.4839 52.4488 49.2196 55.1275 45.4004 56.7093C41.5813 58.2911 37.3787 58.705 33.3243 57.8986C29.2699 57.0922 25.5457 55.1017 22.6226 52.1789C19.6996 49.256 17.7089 45.5321 16.9025 41.478C16.096 37.4239 16.5099 33.2217 18.0919 29.4029C19.6738 25.584 22.3528 22.3199 25.7899 20.0235C29.2271 17.727 33.2681 16.5013 37.4019 16.5013C42.9434 16.5074 48.2561 18.7112 52.1745 22.6293C56.0929 26.5474 58.2969 31.8597 58.303 37.4007ZM2.20011 19.8012C2.20301 18.243 2.7566 16.736 3.76307 15.5465C4.76955 14.3569 6.16412 13.5613 7.7004 13.3004V28.601C7.7004 28.8927 7.8163 29.1725 8.0226 29.3788C8.2289 29.585 8.5087 29.7009 8.80046 29.7009C9.09221 29.7009 9.37201 29.585 9.57831 29.3788C9.78461 29.1725 9.90051 28.8927 9.90051 28.601V12.1014V6.78742C9.88344 5.9442 10.1777 5.12425 10.727 4.48426C11.2763 3.84427 12.0422 3.42911 12.8784 3.31811C13.3368 3.271 13.8001 3.32121 14.2378 3.46546C14.6755 3.60971 15.0778 3.84474 15.4184 4.15519C15.759 4.46527 16.0312 4.84299 16.2176 5.26422C16.404 5.68544 16.5005 6.14091 16.5009 6.60152C16.5009 6.89325 16.6168 7.17304 16.8231 7.37932C17.0294 7.5856 17.3092 7.70149 17.6009 7.70149C17.8927 7.70149 18.1725 7.5856 18.3788 7.37932C18.5851 7.17304 18.701 6.89325 18.701 6.60152V5.50155C18.7012 5.04107 18.7978 4.58574 18.9846 4.16484C19.1714 3.74394 19.4442 3.36679 19.7855 3.05763C20.1268 2.74848 20.529 2.51417 20.9663 2.36978C21.4036 2.22539 21.8663 2.17411 22.3246 2.21924C23.1603 2.33046 23.9258 2.74557 24.4748 3.38531C25.0239 4.02504 25.3181 4.84458 25.3013 5.68745V7.70149C25.3013 7.99323 25.4172 8.27301 25.6235 8.47929C25.8298 8.68558 26.1096 8.80147 26.4014 8.80147C26.6931 8.80147 26.9729 8.68558 27.1792 8.47929C27.3855 8.27301 27.5014 7.99323 27.5014 7.70149C27.502 7.24107 27.5985 6.78581 27.7849 6.36478C27.9713 5.94376 28.2434 5.56622 28.5839 5.25626C28.9245 4.94549 29.327 4.71026 29.7649 4.566C30.2029 4.42174 30.6664 4.3717 31.125 4.41918C31.9607 4.53041 32.7262 4.94552 33.2753 5.58525C33.8244 6.22499 34.1186 7.04453 34.1018 7.88739V9.90144C34.1018 10.1932 34.2177 10.473 34.424 10.6792C34.6303 10.8855 34.9101 11.0014 35.2018 11.0014C35.4936 11.0014 35.7734 10.8855 35.9797 10.6792C36.186 10.473 36.3019 10.1932 36.3019 9.90144C36.3024 9.44101 36.399 8.98575 36.5853 8.56473C36.7717 8.1437 37.0438 7.76616 37.3843 7.4562C37.7252 7.14585 38.1277 6.91088 38.5656 6.76664C39.0035 6.6224 39.4668 6.57214 39.9255 6.61912C40.7612 6.73035 41.5267 7.14546 42.0758 7.78519C42.6248 8.42493 42.9191 9.24447 42.9022 10.0873V14.991C39.7296 14.211 36.4275 14.1132 33.2142 14.7039C30.0009 15.2947 26.9496 16.5605 24.2619 18.4179C21.5741 20.2752 19.3112 22.6818 17.6226 25.4784C15.9339 28.2751 14.8581 31.3983 14.4661 34.6416C14.0741 37.8849 14.3749 41.1744 15.3486 44.2929C16.3223 47.4113 17.9468 50.2876 20.1147 52.7317C22.2825 55.1758 24.9444 57.1321 27.9244 58.4712C30.9045 59.8104 34.1348 60.5019 37.4019 60.5001C37.7738 60.5001 38.1346 60.4616 38.502 60.444V62.7001C38.502 62.9918 38.3861 63.2716 38.1798 63.4779C37.9735 63.6842 37.6937 63.8001 37.4019 63.8001H15.4008C15.109 63.8001 14.8292 63.6842 14.6229 63.4779C14.4166 63.2716 14.3007 62.9918 14.3007 62.7001V54.0202C14.2938 51.5577 13.468 49.1674 11.9532 47.2257L4.07901 37.2159C2.86724 35.6624 2.20629 33.7501 2.20011 31.7799V19.8012Z" fill="#05284A"/>
<path d="M18.6992 37.2022C18.6996 40.6624 19.6703 44.0532 21.501 46.9893C23.3318 49.9255 25.9492 52.2894 29.0561 53.8125C32.1629 55.3356 35.6345 55.9568 39.0767 55.6056C42.5189 55.2545 45.7936 53.945 48.5289 51.8259C51.2642 49.7068 53.3504 46.863 54.5506 43.6177C55.7508 40.3723 56.0168 36.8553 55.3185 33.4663C54.6202 30.0773 52.9856 26.952 50.6002 24.4455C48.2148 21.939 45.1744 20.1517 41.8242 19.2867C41.5473 19.2216 41.2558 19.2675 41.0123 19.4146C40.7688 19.5618 40.5926 19.7985 40.5215 20.0739C40.4503 20.3494 40.4899 20.6418 40.6317 20.8885C40.7735 21.1351 41.0062 21.3165 41.2801 21.3936C41.7422 21.5133 42.1957 21.6523 42.6404 21.8104V34.2638C42.6429 35.3303 42.4204 36.3853 41.9875 37.36L39.1395 43.7744C38.5786 45.0278 38.2882 46.3854 38.2875 47.7586V53.4711C37.9262 53.495 37.567 53.5266 37.1992 53.5266C32.8699 53.5266 28.718 51.8067 25.6567 48.7453C22.5955 45.6838 20.8757 41.5317 20.8757 37.2022C20.8757 32.8727 22.5955 28.7205 25.6567 25.6591C28.718 22.5976 32.8699 20.8778 37.1992 20.8778C37.4878 20.8778 37.7646 20.7631 37.9687 20.559C38.1728 20.3549 38.2875 20.0781 38.2875 19.7895C38.2875 19.5008 38.1728 19.224 37.9687 19.0199C37.7646 18.8158 37.4878 18.7012 37.1992 18.7012C32.2944 18.7066 27.592 20.6576 24.1238 24.126C20.6556 27.5945 18.7047 32.2971 18.6992 37.2022ZM40.4639 47.7586C40.4614 46.6921 40.6839 45.6371 41.1169 44.6624L43.9648 38.248C44.5257 36.9946 44.8161 35.637 44.8169 34.2638V22.7714C47.7921 24.3427 50.2091 26.7951 51.7372 29.7929C53.2652 32.7907 53.8296 36.1875 53.3531 39.5184C52.8766 42.8493 51.3825 45.9516 49.0753 48.4007C46.768 50.8498 43.7604 52.5261 40.4639 53.2001V47.7586Z" fill="#05284A"/>
<path d="M35.1996 46.2005C34.9079 46.2005 34.6281 46.3164 34.4218 46.5227C34.2155 46.729 34.0996 47.0087 34.0996 47.3005V48.4004C34.0996 48.6922 34.2155 48.972 34.4218 49.1782C34.6281 49.3845 34.9079 49.5004 35.1996 49.5004C35.4913 49.5004 35.7711 49.3845 35.9774 49.1782C36.1837 48.972 36.2996 48.6922 36.2996 48.4004V47.3005C36.2996 47.0087 36.1837 46.729 35.9774 46.5227C35.7711 46.3164 35.4913 46.2005 35.1996 46.2005Z" fill="#A7DAF9"/>
<path d="M36.2996 41.8006C36.2996 41.5089 36.1837 41.2291 35.9774 41.0228C35.7711 40.8165 35.4913 40.7006 35.1996 40.7006C34.9079 40.7006 34.6281 40.8165 34.4218 41.0228C34.2155 41.2291 34.0996 41.5089 34.0996 41.8006V42.9006C34.0996 43.1923 34.2155 43.4721 34.4218 43.6784C34.6281 43.8846 34.9079 44.0005 35.1996 44.0005C35.4913 44.0005 35.7711 43.8846 35.9774 43.6784C36.1837 43.4721 36.2996 43.1923 36.2996 42.9006V41.8006Z" fill="#A7DAF9"/>
<path d="M36.2996 36.3008C36.2996 36.009 36.1837 35.7293 35.9774 35.523C35.7711 35.3167 35.4913 35.2008 35.1996 35.2008C34.9079 35.2008 34.6281 35.3167 34.4218 35.523C34.2155 35.7293 34.0996 36.009 34.0996 36.3008V37.4007C34.0996 37.6925 34.2155 37.9723 34.4218 38.1785C34.6281 38.3848 34.9079 38.5007 35.1996 38.5007C35.4913 38.5007 35.7711 38.3848 35.9774 38.1785C36.1837 37.9723 36.2996 37.6925 36.2996 37.4007V36.3008Z" fill="#A7DAF9"/>
<path d="M36.2996 30.8009C36.2996 30.5092 36.1837 30.2294 35.9774 30.0231C35.7711 29.8168 35.4913 29.7009 35.1996 29.7009C34.9079 29.7009 34.6281 29.8168 34.4218 30.0231C34.2155 30.2294 34.0996 30.5092 34.0996 30.8009V31.9009C34.0996 32.1926 34.2155 32.4724 34.4218 32.6787C34.6281 32.885 34.9079 33.0008 35.1996 33.0008C35.4913 33.0008 35.7711 32.885 35.9774 32.6787C36.1837 32.4724 36.2996 32.1926 36.2996 31.9009V30.8009Z" fill="#A7DAF9"/>
<path d="M36.2996 25.301C36.2996 25.0093 36.1837 24.7295 35.9774 24.5232C35.7711 24.3169 35.4913 24.201 35.1996 24.201C34.9079 24.201 34.6281 24.3169 34.4218 24.5232C34.2155 24.7295 34.0996 25.0093 34.0996 25.301V26.401C34.0996 26.6927 34.2155 26.9725 34.4218 27.1788C34.6281 27.3851 34.9079 27.501 35.1996 27.501C35.4913 27.501 35.7711 27.3851 35.9774 27.1788C36.1837 26.9725 36.2996 26.6927 36.2996 26.401V25.301Z" fill="#A7DAF9"/>
<path d="M39.599 34.1008C39.3073 34.1008 39.0275 34.2167 38.8212 34.423C38.6149 34.6293 38.499 34.9091 38.499 35.2008V36.3008C38.499 36.5925 38.6149 36.8723 38.8212 37.0786C39.0275 37.2849 39.3073 37.4007 39.599 37.4007C39.8907 37.4007 40.1705 37.2849 40.3768 37.0786C40.5831 36.8723 40.699 36.5925 40.699 36.3008V35.2008C40.699 34.9091 40.5831 34.6293 40.3768 34.423C40.1705 34.2167 39.8907 34.1008 39.599 34.1008Z" fill="#A7DAF9"/>
<path d="M40.699 29.7009C40.699 29.4092 40.5831 29.1294 40.3768 28.9231C40.1705 28.7168 39.8907 28.601 39.599 28.601C39.3073 28.601 39.0275 28.7168 38.8212 28.9231C38.6149 29.1294 38.499 29.4092 38.499 29.7009V30.8009C38.499 31.0926 38.6149 31.3724 38.8212 31.5787C39.0275 31.785 39.3073 31.9009 39.599 31.9009C39.8907 31.9009 40.1705 31.785 40.3768 31.5787C40.5831 31.3724 40.699 31.0926 40.699 30.8009V29.7009Z" fill="#A7DAF9"/>
<path d="M38.499 25.301C38.499 25.5927 38.6149 25.8725 38.8212 26.0788C39.0275 26.2851 39.3073 26.401 39.599 26.401C39.8907 26.401 40.1705 26.2851 40.3768 26.0788C40.5831 25.8725 40.699 25.5927 40.699 25.301V24.201C40.699 23.9093 40.5831 23.6295 40.3768 23.4232C40.1705 23.217 39.8907 23.1011 39.599 23.1011C39.3073 23.1011 39.0275 23.217 38.8212 23.4232C38.6149 23.6295 38.499 23.9093 38.499 24.201V25.301Z" fill="#A7DAF9"/>
<path d="M31.8992 38.5007C31.8992 38.2089 31.7833 37.9292 31.577 37.7229C31.3707 37.5166 31.0909 37.4007 30.7992 37.4007C30.5075 37.4007 30.2277 37.5166 30.0214 37.7229C29.8151 37.9292 29.6992 38.2089 29.6992 38.5007V39.6006C29.6992 39.8924 29.8151 40.1722 30.0214 40.3784C30.2277 40.5847 30.5075 40.7006 30.7992 40.7006C31.0909 40.7006 31.3707 40.5847 31.577 40.3784C31.7833 40.1722 31.8992 39.8924 31.8992 39.6006V38.5007Z" fill="#A7DAF9"/>
<path d="M30.7992 42.9006C30.5075 42.9006 30.2277 43.0165 30.0214 43.2227C29.8151 43.429 29.6992 43.7088 29.6992 44.0005V45.1005C29.6992 45.3922 29.8151 45.672 30.0214 45.8783C30.2277 46.0846 30.5075 46.2005 30.7992 46.2005C31.0909 46.2005 31.3707 46.0846 31.577 45.8783C31.7833 45.672 31.8992 45.3922 31.8992 45.1005V44.0005C31.8992 43.7088 31.7833 43.429 31.577 43.2227C31.3707 43.0165 31.0909 42.9006 30.7992 42.9006Z" fill="#A7DAF9"/>
<path d="M31.8992 33.0009C31.8992 32.7091 31.7833 32.4293 31.577 32.2231C31.3707 32.0168 31.0909 31.9009 30.7992 31.9009C30.5075 31.9009 30.2277 32.0168 30.0214 32.2231C29.8151 32.4293 29.6992 32.7091 29.6992 33.0009V34.1008C29.6992 34.3926 29.8151 34.6723 30.0214 34.8786C30.2277 35.0849 30.5075 35.2008 30.7992 35.2008C31.0909 35.2008 31.3707 35.0849 31.577 34.8786C31.7833 34.6723 31.8992 34.3926 31.8992 34.1008V33.0009Z" fill="#A7DAF9"/>
<path d="M27.4997 37.4007C27.4997 37.109 27.3839 36.8292 27.1776 36.6229C26.9713 36.4166 26.6915 36.3007 26.3998 36.3007C26.108 36.3007 25.8283 36.4166 25.622 36.6229C25.4157 36.8292 25.2998 37.109 25.2998 37.4007V38.5007C25.2998 38.7924 25.4157 39.0722 25.622 39.2785C25.8283 39.4847 26.108 39.6006 26.3998 39.6006C26.6915 39.6006 26.9713 39.4847 27.1776 39.2785C27.3839 39.0722 27.4997 38.7924 27.4997 38.5007V37.4007Z" fill="#A7DAF9"/>
<path d="M26.3998 41.8006C26.108 41.8006 25.8283 41.9165 25.622 42.1228C25.4157 42.3291 25.2998 42.6088 25.2998 42.9006V44.0005C25.2998 44.2923 25.4157 44.5721 25.622 44.7783C25.8283 44.9846 26.108 45.1005 26.3998 45.1005C26.6915 45.1005 26.9713 44.9846 27.1776 44.7783C27.3839 44.5721 27.4997 44.2923 27.4997 44.0005V42.9006C27.4997 42.6088 27.3839 42.3291 27.1776 42.1228C26.9713 41.9165 26.6915 41.8006 26.3998 41.8006Z" fill="#A7DAF9"/>
<path d="M27.4997 31.9009C27.4997 31.6091 27.3839 31.3294 27.1776 31.1231C26.9713 30.9168 26.6915 30.8009 26.3998 30.8009C26.108 30.8009 25.8283 30.9168 25.622 31.1231C25.4157 31.3294 25.2998 31.6091 25.2998 31.9009V33.0008C25.2998 33.2926 25.4157 33.5724 25.622 33.7786C25.8283 33.9849 26.108 34.1008 26.3998 34.1008C26.6915 34.1008 26.9713 33.9849 27.1776 33.7786C27.3839 33.5724 27.4997 33.2926 27.4997 33.0008V31.9009Z" fill="#A7DAF9"/>
<path d="M31.8992 27.501C31.8992 27.2092 31.7833 26.9295 31.577 26.7232C31.3707 26.5169 31.0909 26.401 30.7992 26.401C30.5075 26.401 30.2277 26.5169 30.0214 26.7232C29.8151 26.9295 29.6992 27.2092 29.6992 27.501V28.6009C29.6992 28.8927 29.8151 29.1725 30.0214 29.3787C30.2277 29.585 30.5075 29.7009 30.7992 29.7009C31.0909 29.7009 31.3707 29.585 31.577 29.3787C31.7833 29.1725 31.8992 28.8927 31.8992 28.6009V27.501Z" fill="#A7DAF9"/>
<path d="M74.4996 55C74.7975 55 75.0725 54.837 75.2154 54.5732L75.7312 53.628C76.1719 52.8203 76.8298 52.1609 77.6321 51.7202L78.5748 51.2025C78.8368 51.0592 79 50.7831 79 50.4841C79 50.1851 78.8376 49.9091 78.5748 49.7658L77.6321 49.2472C76.8298 48.8074 76.1719 48.148 75.7312 47.3411L75.2154 46.395C74.9297 45.8683 74.0695 45.8683 73.7838 46.395L73.2672 47.3411C72.8281 48.1471 72.171 48.8065 71.3679 49.2481L70.4252 49.7658C70.1632 49.9091 70 50.1851 70 50.4841C70 50.7831 70.1624 51.0592 70.4252 51.2025L71.3679 51.721C72.171 52.1617 72.8281 52.8211 73.268 53.6271L73.7838 54.5732C73.9266 54.837 74.2017 55 74.4996 55ZM72.4918 50.4841C73.3039 49.9714 73.9887 49.2841 74.4996 48.4691C75.0113 49.2849 75.6961 49.9722 76.5074 50.4841C75.6961 50.9961 75.0113 51.6833 74.4996 52.4992C73.9887 51.6842 73.3039 50.9969 72.4918 50.4841Z" fill="#A7DAF9"/>
</svg>
