<svg width="78" height="76" viewBox="0 0 78 76" fill="none" xmlns="http://www.w3.org/2000/svg">
<g clip-path="url(#clip0_41_312)">
<circle cx="33" cy="33" r="33" fill="#EAF9FF"/>
<path d="M12.6413 25.1413H10.8587V23.3587C10.8587 22.6073 10.2514 22 9.5 22C8.74864 22 8.1413 22.6073 8.1413 23.3587V25.1413H6.3587C5.60734 25.1413 5 25.7486 5 26.5C5 27.2514 5.60734 27.8587 6.3587 27.8587H8.1413V29.6413C8.1413 30.3927 8.74864 31 9.5 31C10.2514 31 10.8587 30.3927 10.8587 29.6413V27.8587H12.6413C13.3927 27.8587 14 27.2514 14 26.5C14 25.7486 13.3927 25.1413 12.6413 25.1413Z" fill="#A7DAF9"/>
<path d="M15.3961 36.3961H14.6039V35.6039C14.6039 35.2699 14.3339 35 14 35C13.6661 35 13.3961 35.2699 13.3961 35.6039V36.3961H12.6039C12.2699 36.3961 12 36.6661 12 37C12 37.3339 12.2699 37.6039 12.6039 37.6039H13.3961V38.3961C13.3961 38.7301 13.6661 39 14 39C14.3339 39 14.6039 38.7301 14.6039 38.3961V37.6039H15.3961C15.7301 37.6039 16 37.3339 16 37C16 36.6661 15.7301 36.3961 15.3961 36.3961Z" fill="#A7DAF9"/>
<path d="M65.9863 20.2149C65.9795 20.1119 65.9588 20.0104 65.9246 19.9131C65.912 19.8766 65.9029 19.8411 65.8869 19.8057C65.8329 19.6851 65.7583 19.5749 65.6663 19.48L56.5234 10.3371C56.4278 10.245 56.3168 10.1703 56.1954 10.1166C56.1615 10.1021 56.1268 10.0895 56.0914 10.0789C55.9921 10.0436 55.8881 10.0228 55.7829 10.0171C55.7577 10.0126 55.7383 10 55.7143 10H20.2857C19.6795 10 19.0981 10.2408 18.6695 10.6695C18.2408 11.0981 18 11.6795 18 12.2857V74C18 74.6062 18.2408 75.1876 18.6695 75.6162C19.0981 76.0449 19.6795 76.2857 20.2857 76.2857H63.7143C64.3205 76.2857 64.9019 76.0449 65.3305 75.6162C65.7592 75.1876 66 74.6062 66 74V20.2857C66 20.2606 65.9874 20.24 65.9863 20.2149ZM56.8571 13.9017L62.0983 19.1429H56.8571V13.9017ZM63.7143 74H20.2857V12.2857H54.5714V19.1429C54.5714 19.7491 54.8122 20.3304 55.2409 20.7591C55.6696 21.1878 56.2509 21.4286 56.8571 21.4286H63.7143V74Z" fill="#05284A"/>
<path d="M36.2854 30.5714C35.9823 30.5714 35.6916 30.6918 35.4773 30.9061C35.263 31.1205 35.1426 31.4112 35.1426 31.7143C35.1426 32.0174 35.263 32.3081 35.4773 32.5224C35.6916 32.7367 35.9823 32.8571 36.2854 32.8571H47.714C48.0171 32.8571 48.3078 32.7367 48.5221 32.5224C48.7365 32.3081 48.8569 32.0174 48.8569 31.7143V29.4285C48.8569 29.1254 48.7365 28.8348 48.5221 28.6204C48.3078 28.4061 48.0171 28.2857 47.714 28.2857C47.4109 28.2857 47.1202 28.4061 46.9059 28.6204C46.6916 28.8348 46.5711 29.1254 46.5711 29.4285V30.5714H39.714V26H44.2854C44.5885 26 44.8792 25.8796 45.0936 25.6652C45.3079 25.4509 45.4283 25.1602 45.4283 24.8571C45.4283 24.554 45.3079 24.2633 45.0936 24.049C44.8792 23.8347 44.5885 23.7143 44.2854 23.7143H39.714V19.1428H46.5711V20.2857C46.5711 20.5888 46.6916 20.8795 46.9059 21.0938C47.1202 21.3081 47.4109 21.4285 47.714 21.4285C48.0171 21.4285 48.3078 21.3081 48.5221 21.0938C48.7365 20.8795 48.8569 20.5888 48.8569 20.2857V18C48.8569 17.6969 48.7365 17.4062 48.5221 17.1919C48.3078 16.9775 48.0171 16.8571 47.714 16.8571H36.2854C35.9823 16.8571 35.6916 16.9775 35.4773 17.1919C35.263 17.4062 35.1426 17.6969 35.1426 18C35.1426 18.3031 35.263 18.5938 35.4773 18.8081C35.6916 19.0224 35.9823 19.1428 36.2854 19.1428H37.4283V30.5714H36.2854Z" fill="#05284A"/>
<path d="M26.0003 53.4286C25.6972 53.4286 25.4065 53.549 25.1922 53.7633C24.9778 53.9776 24.8574 54.2683 24.8574 54.5714C24.8574 54.8745 24.9778 55.1652 25.1922 55.3796C25.4065 55.5939 25.6972 55.7143 26.0003 55.7143H30.5717C30.8748 55.7143 31.1655 55.5939 31.3798 55.3796C31.5942 55.1652 31.7146 54.8745 31.7146 54.5714C31.7146 54.2683 31.5942 53.9776 31.3798 53.7633C31.1655 53.549 30.8748 53.4286 30.5717 53.4286H29.4289V48.8572H34.0003C34.3034 48.8572 34.5941 48.7367 34.8084 48.5224C35.0227 48.3081 35.1431 48.0174 35.1431 47.7143C35.1431 47.4112 35.0227 47.1205 34.8084 46.9062C34.5941 46.6918 34.3034 46.5714 34.0003 46.5714H29.4289V42H36.286V43.1429C36.286 43.446 36.4064 43.7367 36.6207 43.951C36.8351 44.1653 37.1257 44.2857 37.4289 44.2857C37.732 44.2857 38.0226 44.1653 38.237 43.951C38.4513 43.7367 38.5717 43.446 38.5717 43.1429V40.8572C38.5717 40.554 38.4513 40.2634 38.237 40.049C38.0226 39.8347 37.732 39.7143 37.4289 39.7143H26.0003C25.6972 39.7143 25.4065 39.8347 25.1922 40.049C24.9778 40.2634 24.8574 40.554 24.8574 40.8572C24.8574 41.1603 24.9778 41.4509 25.1922 41.6653C25.4065 41.8796 25.6972 42 26.0003 42H27.1431V53.4286H26.0003Z" fill="#05284A"/>
<path d="M48.8572 39.7143H46.5714C46.2683 39.7143 45.9777 39.8347 45.7633 40.049C45.549 40.2634 45.4286 40.554 45.4286 40.8572C45.4286 41.1603 45.549 41.4509 45.7633 41.6653C45.9777 41.8796 46.2683 42 46.5714 42H47.7143V53.4286H46.5714C46.2683 53.4286 45.9777 53.549 45.7633 53.7633C45.549 53.9776 45.4286 54.2683 45.4286 54.5714C45.4286 54.8745 45.549 55.1652 45.7633 55.3796C45.9777 55.5939 46.2683 55.7143 46.5714 55.7143H51.1429C51.446 55.7143 51.7367 55.5939 51.951 55.3796C52.1653 55.1652 52.2857 54.8745 52.2857 54.5714C52.2857 54.2683 52.1653 53.9776 51.951 53.7633C51.7367 53.549 51.446 53.4286 51.1429 53.4286H50V48.8572H54.5714C55.7839 48.8572 56.9466 48.3755 57.8039 47.5182C58.6612 46.6609 59.1429 45.4981 59.1429 44.2857C59.1429 43.0733 58.6612 41.9105 57.8039 41.0532C56.9466 40.1959 55.7839 39.7143 54.5714 39.7143H48.8572ZM56.8572 44.2857C56.8572 44.8919 56.6163 45.4733 56.1877 45.902C55.759 46.3306 55.1777 46.5714 54.5714 46.5714H50V42H54.5714C55.1777 42 55.759 42.2408 56.1877 42.6695C56.6163 43.0981 56.8572 43.6795 56.8572 44.2857Z" fill="#05284A"/>
<path d="M44.2854 62.5714H48.8569C49.16 62.5714 49.4507 62.451 49.665 62.2367C49.8793 62.0224 49.9997 61.7317 49.9997 61.4286C49.9997 61.1255 49.8793 60.8348 49.665 60.6204C49.4507 60.4061 49.16 60.2857 48.8569 60.2857H44.2854C43.9823 60.2857 43.6916 60.4061 43.4773 60.6204C43.263 60.8348 43.1426 61.1255 43.1426 61.4286C43.1426 61.7317 43.263 62.0224 43.4773 62.2367C43.6916 62.451 43.9823 62.5714 44.2854 62.5714Z" fill="#A7DAF9"/>
<path d="M58.0004 60.2857H53.429C53.1259 60.2857 52.8352 60.4061 52.6209 60.6204C52.4065 60.8348 52.2861 61.1255 52.2861 61.4286C52.2861 61.7317 52.4065 62.0224 52.6209 62.2367C52.8352 62.451 53.1259 62.5714 53.429 62.5714H58.0004C58.3035 62.5714 58.5942 62.451 58.8085 62.2367C59.0229 62.0224 59.1433 61.7317 59.1433 61.4286C59.1433 61.1255 59.0229 60.8348 58.8085 60.6204C58.5942 60.4061 58.3035 60.2857 58.0004 60.2857Z" fill="#A7DAF9"/>
<path d="M35.1429 60.2857C34.8398 60.2857 34.5491 60.4061 34.3347 60.6204C34.1204 60.8348 34 61.1255 34 61.4286C34 61.7317 34.1204 62.0224 34.3347 62.2367C34.5491 62.451 34.8398 62.5714 35.1429 62.5714H39.7143C40.0174 62.5714 40.3081 62.451 40.5224 62.2367C40.7367 62.0224 40.8571 61.7317 40.8571 61.4286C40.8571 61.1255 40.7367 60.8348 40.5224 60.6204C40.3081 60.4061 40.0174 60.2857 39.7143 60.2857H35.1429Z" fill="#A7DAF9"/>
<path d="M31.7146 61.4286C31.7146 61.1255 31.5942 60.8348 31.3798 60.6204C31.1655 60.4061 30.8748 60.2857 30.5717 60.2857H26.0003C25.6972 60.2857 25.4065 60.4061 25.1922 60.6204C24.9778 60.8348 24.8574 61.1255 24.8574 61.4286C24.8574 61.7317 24.9778 62.0224 25.1922 62.2367C25.4065 62.451 25.6972 62.5714 26.0003 62.5714H30.5717C30.8748 62.5714 31.1655 62.451 31.3798 62.2367C31.5942 62.0224 31.7146 61.7317 31.7146 61.4286Z" fill="#A7DAF9"/>
<path d="M55.714 67.1429H28.2854C27.9823 67.1429 27.6916 67.2633 27.4773 67.4776C27.263 67.6919 27.1426 67.9826 27.1426 68.2857C27.1426 68.5888 27.263 68.8795 27.4773 69.0939C27.6916 69.3082 27.9823 69.4286 28.2854 69.4286H55.714C56.0171 69.4286 56.3078 69.3082 56.5221 69.0939C56.7365 68.8795 56.8569 68.5888 56.8569 68.2857C56.8569 67.9826 56.7365 67.6919 56.5221 67.4776C56.3078 67.2633 56.0171 67.1429 55.714 67.1429Z" fill="#A7DAF9"/>
<path d="M73.4996 13C73.7975 13 74.0725 12.837 74.2154 12.5732L74.7312 11.628C75.1719 10.8203 75.8298 10.1609 76.6321 9.7202L77.5748 9.20251C77.8368 9.05916 78 8.78311 78 8.48413C78 8.18515 77.8376 7.9091 77.5748 7.76575L76.6321 7.24724C75.8298 6.80737 75.1719 6.14797 74.7312 5.34112L74.2154 4.39503C73.9297 3.86832 73.0695 3.86832 72.7838 4.39503L72.2672 5.34112C71.8281 6.14715 71.171 6.80655 70.3679 7.24806L69.4252 7.76575C69.1632 7.9091 69 8.18515 69 8.48413C69 8.78311 69.1624 9.05916 69.4252 9.20251L70.3679 9.72102C71.171 10.1617 71.8281 10.8211 72.268 11.6271L72.7838 12.5732C72.9266 12.837 73.2017 13 73.4996 13ZM71.4918 8.48413C72.3039 7.97135 72.9887 7.2841 73.4996 6.46907C74.0113 7.28492 74.6961 7.97217 75.5074 8.48413C74.6961 8.99609 74.0113 9.68334 73.4996 10.4992C72.9887 9.68416 72.3039 8.99691 71.4918 8.48413Z" fill="#A7DAF9"/>
</g>
<defs>
<clipPath id="clip0_41_312">
<rect width="78" height="76" fill="white"/>
</clipPath>
</defs>
</svg>
