<svg width="84" height="76" viewBox="0 0 84 76" fill="none" xmlns="http://www.w3.org/2000/svg">
<circle cx="51" cy="33" r="33" fill="#EAF9FF"/>
<path d="M78.4903 24.1413H76.5097V22.3587C76.5097 21.6073 75.8348 21 75 21C74.1652 21 73.4903 21.6073 73.4903 22.3587V24.1413H71.5097C70.6748 24.1413 70 24.7486 70 25.5C70 26.2514 70.6748 26.8587 71.5097 26.8587H73.4903V28.6413C73.4903 29.3927 74.1652 30 75 30C75.8348 30 76.5097 29.3927 76.5097 28.6413V26.8587H78.4903C79.3252 26.8587 80 26.2514 80 25.5C80 24.7486 79.3252 24.1413 78.4903 24.1413Z" fill="#A7DAF9"/>
<path d="M71.3961 15.3961H70.6039V14.6039C70.6039 14.2699 70.3339 14 70 14C69.6661 14 69.3961 14.2699 69.3961 14.6039V15.3961H68.6039C68.2699 15.3961 68 15.6661 68 16C68 16.3339 68.2699 16.6039 68.6039 16.6039H69.3961V17.3961C69.3961 17.7301 69.6661 18 70 18C70.3339 18 70.6039 17.7301 70.6039 17.3961V16.6039H71.3961C71.7301 16.6039 72 16.3339 72 16C72 15.6661 71.7301 15.3961 71.3961 15.3961Z" fill="#A7DAF9"/>
<path d="M7.49691 75.9987C8.15229 75.9745 8.74467 75.5567 9.13461 75.2541L15.3876 68.9997L21.6407 75.2541C22.1398 75.7739 22.8842 76.0472 23.601 75.9739C24.4928 75.8783 25.3028 75.2343 25.5973 74.3869C25.8918 73.5394 25.6556 72.5318 25.0153 71.9035L18.7623 65.6242L25.3875 58.9975C29.788 62.6475 35.4443 64.83 41.5908 64.83C55.5957 64.83 67 53.423 67 39.415C67 25.407 55.5957 14 41.5908 14C27.586 14 16.1817 25.407 16.1817 39.415C16.1817 45.5687 18.3823 51.2188 22.0377 55.622L15.3876 62.2736L9.13461 56.0191C8.28078 55.0411 6.58306 54.9805 5.66176 55.8953C4.74045 56.81 4.78846 58.5085 5.75996 59.3698L12.013 65.6242L5.75996 71.9035C5.07245 72.5679 4.8488 73.6676 5.22216 74.5479C5.59552 75.4281 6.5415 76.0315 7.49691 75.9987ZM41.5908 60.0647C30.1608 60.0647 20.9459 50.8475 20.9459 39.415C20.9459 27.9824 30.1608 18.7653 41.5908 18.7653C53.0209 18.7653 62.2358 27.9824 62.2358 39.415C62.2358 50.8475 53.0209 60.0647 41.5908 60.0647Z" fill="#05284A"/>
<path d="M4.49959 50C4.7975 50 5.07255 49.837 5.21538 49.5732L5.73121 48.628C6.17194 47.8203 6.82978 47.1609 7.63208 46.7202L8.57477 46.2025C8.83676 46.0592 9 45.7831 9 45.4841C9 45.1851 8.83758 44.9091 8.57477 44.7658L7.63208 44.2472C6.82978 43.8074 6.17194 43.148 5.73121 42.3411L5.21538 41.395C4.92972 40.8683 4.06947 40.8683 3.7838 41.395L3.26716 42.3411C2.82806 43.1471 2.17103 43.8065 1.36791 44.2481L0.425229 44.7658C0.163236 44.9091 0 45.1851 0 45.4841C0 45.7831 0.162419 46.0592 0.425229 46.2025L1.36791 46.721C2.17103 47.1617 2.82806 47.8211 3.26798 48.6271L3.7838 49.5732C3.92663 49.837 4.20169 50 4.49959 50ZM2.49179 45.4841C3.30389 44.9714 3.98866 44.2841 4.49959 43.4691C5.01134 44.2849 5.69611 44.9722 6.50739 45.4841C5.69611 45.9961 5.01134 46.6833 4.49959 47.4992C3.98866 46.6842 3.30389 45.9969 2.49179 45.4841Z" fill="#A7DAF9"/>
<circle cx="41.5" cy="39.5" r="14" stroke="#A7DAF9" stroke-width="3"/>
</svg>
