<svg width="86" height="76" viewBox="0 0 86 76" fill="none" xmlns="http://www.w3.org/2000/svg">
<ellipse cx="41" cy="35.5" rx="36" ry="35.5" fill="#EAF9FF"/>
<path d="M21.2258 17.0278H16.2742V12.4722C16.2742 10.5521 14.5871 9 12.5 9C10.4129 9 8.72584 10.5521 8.72584 12.4722V17.0278H3.77416C1.68705 17.0278 0 18.5799 0 20.5C0 22.4201 1.68705 23.9722 3.77416 23.9722H8.72584V28.5278C8.72584 30.4479 10.4129 32 12.5 32C14.5871 32 16.2742 30.4479 16.2742 28.5278V23.9722H21.2258C23.313 23.9722 25 22.4201 25 20.5C25 18.5799 23.313 17.0278 21.2258 17.0278Z" fill="#A7DAF9"/>
<path fill-rule="evenodd" clip-rule="evenodd" d="M15.6254 10.9161C15.1413 9.45761 13.7675 8.40796 12.1447 8.40796C10.1169 8.40796 8.47784 10.0471 8.47784 12.0748V16.8858H3.66689C1.6391 16.8858 0 18.5249 0 20.5527C0 22.5805 1.6391 24.2196 3.66689 24.2196H7.4593C9.16645 19.1881 11.9843 14.659 15.6254 10.9161Z" fill="#05284A"/>
<path d="M16.9736 68.7163C20.8184 68.7163 23.9472 65.5908 23.9472 61.7499C23.9472 58.2378 21.3301 55.3327 17.9436 54.8586C18.1424 49.6554 22.4294 45.4811 27.6855 45.4811C33.0672 45.4811 37.4465 49.8549 37.4465 55.232V64.3501C37.4465 70.774 42.6779 76 49.1094 76C55.54 76 60.7723 70.774 60.7723 64.3492V59.1146C63.0804 59.0263 64.9339 57.1358 64.9339 54.8092V52.1026C64.9339 52.039 64.9091 51.9829 64.8977 51.9231C69.7858 50.9037 74.4418 48.5097 78.2287 44.7268C88.5041 34.4611 88.5878 17.818 78.4912 7.44201L78.7108 5.5591C79.0247 2.86869 77.0894 0.425276 74.3971 0.110825C71.7049 -0.209327 69.258 1.72963 68.9432 4.42004L68.6551 6.88625C68.3403 9.57667 70.2756 12.021 72.9688 12.3345C73.1618 12.3573 73.353 12.3687 73.5441 12.3687C74.6435 12.3687 75.7057 12.0001 76.5854 11.3047C77.1664 10.8459 77.6105 10.2692 77.9301 9.62797C86.4899 19.3009 86.1447 34.1314 76.884 43.3835C67.259 52.9985 51.5991 52.9985 41.9741 43.3835C32.605 34.0241 32.3596 18.9532 41.2314 9.29072C41.55 10.0374 42.0322 10.7081 42.6893 11.2278C43.569 11.9222 44.6312 12.2918 45.7305 12.2918C45.9217 12.2918 46.1138 12.2804 46.3059 12.2576C48.9991 11.9431 50.9344 9.49971 50.6196 6.8093L50.3314 4.34309C50.0167 1.65268 47.5698 -0.282476 44.8775 0.0338749C42.1853 0.348326 40.25 2.79174 40.5638 5.48215L40.7512 7.08575C40.7112 7.11425 40.6656 7.13041 40.6294 7.16651C30.2637 17.5215 30.2637 34.3718 40.6294 44.7278C44.6264 48.7206 49.5906 51.1669 54.7754 52.0808C54.7754 52.0893 54.7706 52.096 54.7706 52.1036V54.8102C54.7706 57.1158 56.5927 58.9892 58.8713 59.1099V64.3511C58.8704 69.7262 54.4911 74.1 49.1094 74.1C43.7268 74.1 39.3485 69.7262 39.3485 64.3492V55.231C39.3485 48.8071 34.1171 43.5802 27.6855 43.5802C21.3824 43.5802 16.2451 48.6038 16.0426 54.852C12.6371 55.3089 10 58.2245 10 61.749C10 65.5908 13.1288 68.7163 16.9736 68.7163ZM76.5331 7.80491C76.4399 8.60006 76.0395 9.31351 75.4052 9.81417C74.7709 10.3158 73.9797 10.5362 73.1884 10.4478C71.5366 10.255 70.3507 8.75681 70.5428 7.10666L70.8309 4.64044C71.0097 3.10904 72.3164 1.97758 73.8228 1.97758C73.9397 1.97758 74.0567 1.98423 74.1746 1.99753C75.8255 2.19038 77.0124 3.68949 76.8203 5.3387L76.5331 7.80491ZM45.0972 1.91963C45.2151 1.90633 45.3321 1.89968 45.4491 1.89968C46.9564 1.89968 48.2621 3.03114 48.4409 4.56254L48.729 7.02875C48.9221 8.67796 47.7352 10.1761 46.0834 10.3699C45.2902 10.4611 44.5009 10.2379 43.8666 9.73627C43.2323 9.23561 42.8319 8.52216 42.7387 7.72701L42.4506 5.2608C42.2594 3.61159 43.4453 2.11248 45.0972 1.91963ZM56.6717 54.8092V52.3477C57.5884 52.4427 58.508 52.4941 59.4286 52.4941C60.6325 52.4941 61.8365 52.4086 63.0319 52.2471V54.8102C63.0319 56.1459 61.944 57.2327 60.6069 57.2327H59.0957C57.7596 57.2317 56.6717 56.1449 56.6717 54.8092ZM16.9736 56.6836C19.7695 56.6836 22.0452 58.9569 22.0452 61.7499C22.0452 64.543 19.7695 66.8163 16.9736 66.8163C14.1767 66.8163 11.902 64.543 11.902 61.7499C11.902 58.9569 14.1767 56.6836 16.9736 56.6836Z" fill="#05284A"/>
<path d="M61.1574 28.0122C62.3557 28.3281 64.0758 27.9433 65.1246 27.2885C65.1816 27.3337 65.24 27.3757 65.2996 27.4163C65.4051 27.4884 65.5159 27.5559 65.632 27.6208C65.7703 27.691 65.9558 27.7742 66.1963 27.8562C66.2088 27.8614 66.2232 27.868 66.2357 27.8732C66.3825 27.9355 66.5274 27.98 66.6762 28.0082C66.8145 28.0345 66.9515 28.0456 67.0891 28.0423C67.2275 28.0456 67.3645 28.0345 67.5067 28.0076C67.6509 27.98 67.7964 27.9355 67.9426 27.8732C67.9557 27.868 67.9695 27.8614 67.9826 27.8588C68.2225 27.7736 68.408 27.6903 68.5477 27.6195C68.6637 27.5553 68.7745 27.4878 68.88 27.4157C68.956 27.3645 69.0295 27.3101 69.1002 27.2531C70.5686 27.9774 72.4532 28.2875 73.9772 27.6071C74.1536 27.5284 74.1588 27.3252 74.0153 27.1934C73.9615 27.1436 73.8966 27.1063 73.8376 27.0623C73.5354 26.8362 73.2601 26.5956 73.0136 26.3406C72.1726 25.4688 71.6613 24.4239 71.4994 23.185C71.4725 22.9798 71.4555 22.7681 71.4483 22.5518C71.443 22.3899 71.4332 22.228 71.4207 22.066C71.3749 21.4774 71.287 20.8901 71.19 20.308C71.1769 20.2241 71.1599 20.1415 71.1395 20.0589C71.0248 19.5666 70.8046 19.1104 70.4191 18.7518C68.7961 17.2435 66.334 17.0245 64.454 18.1966C63.8634 18.5643 63.4249 19.0291 63.164 19.6315C63.086 19.8124 63.0237 20.0058 62.9785 20.2129C62.8401 20.8416 62.7733 21.4761 62.7248 22.1139C62.7143 22.2457 62.7058 22.3774 62.6972 22.5098C62.6848 22.696 62.6769 22.8848 62.6618 23.0716C62.6474 23.2453 62.6278 23.4184 62.5924 23.5875C62.3649 24.6769 61.8746 25.5953 61.1404 26.3518C60.8743 26.6264 60.5747 26.8801 60.2456 27.1128C59.6039 27.5664 60.8192 27.923 61.1574 28.0122Z" fill="#A7DAF9"/>
<path d="M48.3277 23.3259C48.3408 23.5396 48.3834 23.7507 48.4096 23.9637C48.4673 24.4357 48.6895 24.89 49.1405 25.1148C49.2349 25.1902 49.2972 25.2669 49.3313 25.4006C49.6027 26.4553 50.1297 27.3055 50.9864 27.8902C51.092 27.9623 51.2028 28.0305 51.3194 28.0948C51.4577 28.1655 51.6439 28.2481 51.8838 28.3301C51.8969 28.336 51.9107 28.3419 51.9238 28.3471C52.07 28.4101 52.2155 28.454 52.3643 28.4822C52.502 28.5077 52.6396 28.5189 52.7773 28.5162C52.9149 28.5195 53.0526 28.5084 53.1948 28.4815C53.3397 28.454 53.4846 28.4101 53.6308 28.3471C53.6439 28.3419 53.6576 28.336 53.6707 28.3334C53.9107 28.2481 54.0968 28.1655 54.2358 28.0941C54.3512 28.0299 54.4619 27.9617 54.5675 27.8902C55.0126 27.588 55.3882 27.1908 55.6707 26.7333C55.8143 26.5006 55.9296 26.2547 56.0312 26.0011C56.1296 25.7552 56.1289 25.4832 56.3006 25.2708C56.4265 25.1148 56.5923 24.9968 56.7398 24.8618C57.006 24.6179 57.1017 24.3151 57.1443 23.9637C57.1705 23.7507 57.2138 23.5396 57.2262 23.3259C57.2328 23.221 57.2361 23.1135 57.2295 23.0073C57.2308 22.9929 57.2315 22.9785 57.2321 22.9641C57.2446 22.7373 57.1154 22.4272 56.8723 22.3695C56.749 22.3407 56.6369 22.3918 56.5773 22.2588C56.5432 22.1834 56.6002 21.9834 56.6094 21.9028C56.6317 21.7016 56.6435 21.4866 56.6926 21.2899C56.7838 20.9241 56.8408 20.5498 56.8546 20.1729C56.8965 19.0127 56.3236 18.0576 55.263 17.5863C55.1424 17.5325 55.0204 17.4834 54.8972 17.4381C54.2135 17.1851 53.5036 17.0625 52.7766 17.0566C52.62 17.0553 52.462 17.0593 52.3034 17.0691C51.796 17.0992 51.2539 17.1392 50.7891 17.3641C50.7432 17.3864 50.6987 17.4113 50.6561 17.4388C50.4843 17.5489 50.3408 17.6984 50.2274 17.8688C50.112 18.0419 50.074 18.1395 49.9042 18.2752C49.7547 18.3952 49.6204 18.4837 49.4539 18.5571C49.3064 18.6227 49.174 18.7269 49.094 18.8698C48.9295 19.1615 48.8718 19.5161 48.858 19.8465C48.841 20.2608 48.8593 20.6757 48.8882 21.0893C48.8986 21.2362 48.9262 21.383 48.9557 21.5292C49.0009 21.7534 49.0488 21.9769 49.0402 22.2037C49.0376 22.2738 49.0088 22.3138 48.9655 22.3394C48.9517 22.3427 48.9373 22.3446 48.9222 22.3466C48.8416 22.3558 48.7597 22.3525 48.681 22.3715C48.4372 22.4292 48.3087 22.7392 48.3211 22.9661C48.3218 22.9805 48.3225 22.9949 48.3238 23.0093C48.3179 23.1135 48.3211 23.221 48.3277 23.3259Z" fill="#A7DAF9"/>
<path d="M75.5185 33.3795C75.2491 31.4582 73.3678 29.9308 71.4314 29.9308C71.4163 29.9308 71.4065 29.9308 71.3914 29.9361C71.2714 29.9459 71.1318 29.9912 71.042 30.0606C69.8641 31.019 68.6219 31.5329 67.2991 31.5631C67.1791 31.5683 67.0546 31.5729 66.93 31.5683C66.8455 31.5683 66.7602 31.5683 66.6757 31.5631C65.3981 31.5034 64.1906 30.9941 63.0474 30.0606C62.9478 29.9807 62.7931 29.9361 62.6633 29.9308C62.6332 29.9308 62.6082 29.9308 62.5787 29.9361C61.9101 29.9459 61.2513 30.1459 60.6673 30.4703C60.4228 30.61 60.1481 30.6748 59.8787 30.6598C59.644 30.6545 59.4094 30.5896 59.2003 30.4703C58.5913 30.1308 57.903 29.9315 57.2042 29.9315C57.1944 29.9315 57.1846 29.9315 57.1741 29.9367C57.0495 29.942 56.9092 29.9866 56.8149 30.0613C55.6421 31.0196 54.3993 31.5336 53.0771 31.5637C52.9572 31.569 52.8326 31.5736 52.7081 31.569C52.6235 31.569 52.5383 31.569 52.4538 31.5637C51.1762 31.5041 49.9635 30.9947 48.8255 30.0613C48.7259 29.9813 48.5659 29.9367 48.4361 29.9315C48.4112 29.9315 48.3863 29.9315 48.3614 29.9367C46.4499 29.9715 44.6132 31.4837 44.349 33.3801C43.9249 36.423 45.4142 39.3839 47.3283 41.7346C48.0868 42.668 49.0202 43.5563 50.1627 44.2996C50.8366 44.6437 51.595 45.0384 52.1739 45.3523C52.7127 45.6467 53.0922 45.8715 53.0922 45.9259C53.1021 45.8512 53.1171 45.7765 53.127 45.7011C53.1971 45.2521 53.2718 44.803 53.3964 44.3684C53.6907 43.3353 54.2295 42.497 55.3773 42.2223C55.6421 42.1574 55.8414 42.1823 56.0414 42.3573C56.0512 42.3672 56.0663 42.377 56.0761 42.3875C56.9092 43.1761 57.9423 43.5451 59.0606 43.61C59.3399 43.6251 59.6145 43.6251 59.8794 43.5949C60.9072 43.5051 61.8354 43.1059 62.6594 42.3875C62.799 42.2629 63.0684 42.198 63.2585 42.2275C63.4184 42.2577 63.5731 42.2977 63.7128 42.3573C64.3368 42.592 64.776 43.0758 65.0153 43.7096C65.2899 44.4432 65.4145 45.2265 65.5895 45.9954C65.6046 46.0505 65.754 46.0105 66.0038 45.8905C66.009 45.8905 66.0189 45.8853 66.0287 45.8807C66.2332 45.8256 66.4331 45.766 66.6278 45.7011C66.9569 45.5962 67.2768 45.4815 67.5809 45.3517C68.3144 45.0521 68.9831 44.6981 69.5874 44.2989C70.7352 43.5556 71.6687 42.6674 72.4271 41.7339C73.8745 39.9575 75.2969 37.422 75.5414 34.9815C75.5611 34.8019 75.5716 34.6223 75.5762 34.4427C75.5834 34.0835 75.5683 33.7289 75.5185 33.3795ZM57.3629 41.2744C56.904 40.7802 56.5946 40.2066 56.4045 39.5675C56.3698 39.4377 56.3147 39.3577 56.1751 39.3177C55.9502 39.2476 55.8159 39.0582 55.7759 38.8386C55.711 38.4695 55.6808 38.0401 55.7057 37.6659C55.7057 37.656 55.7005 37.6462 55.7005 37.6357C55.6907 37.4561 55.7955 37.2162 55.9948 37.1716C56.0597 37.1565 56.1246 37.1565 56.1895 37.1519C56.2046 37.1519 56.2144 37.1467 56.2242 37.1467C56.2642 37.127 56.2839 37.0916 56.2891 37.0366C56.2944 36.8622 56.2544 36.6872 56.219 36.5128C56.1941 36.3981 56.1744 36.2834 56.1639 36.1687C56.139 35.8442 56.1239 35.5197 56.139 35.2005C56.1489 34.9409 56.1987 34.6617 56.3285 34.4368C56.3934 34.3221 56.5028 34.2421 56.6228 34.1923C56.7578 34.1327 56.8673 34.0625 56.9918 33.9727C57.1269 33.8632 57.1616 33.7879 57.2514 33.6535C57.3465 33.5184 57.4612 33.4037 57.6008 33.3192C57.6356 33.2995 57.6709 33.2792 57.7103 33.2595C58.0898 33.0852 58.529 33.055 58.9426 33.0301C59.0724 33.0248 59.197 33.0203 59.3268 33.0203C59.5116 33.0203 59.6912 33.0301 59.8754 33.055C60.2746 33.095 60.6692 33.1795 61.0534 33.3192C61.153 33.3539 61.2533 33.3939 61.3529 33.4339C62.2162 33.8029 62.6803 34.5469 62.6456 35.4548C62.6358 35.7491 62.5905 36.0389 62.5158 36.328C62.4758 36.4774 62.466 36.6472 62.4457 36.8071C62.4404 36.8668 62.3906 37.0267 62.4208 37.0818C62.4706 37.1867 62.5604 37.1467 62.66 37.1716C62.86 37.2162 62.9642 37.4561 62.9544 37.6357C62.9544 37.6455 62.9543 37.6554 62.9491 37.6659C62.9144 38.13 63.014 38.6144 62.7846 39.0385C62.7249 39.1532 62.605 39.2633 62.485 39.3079C62.3356 39.363 62.2805 39.4475 62.2405 39.5871C62.0307 40.2708 61.6918 40.8844 61.1773 41.3839C60.7833 41.768 60.3336 42.0178 59.8748 42.1227C58.9997 42.3324 58.0715 42.0479 57.3629 41.2744Z" fill="#A7DAF9"/>
</svg>
