<svg width="80" height="76" viewBox="0 0 80 76" fill="none" xmlns="http://www.w3.org/2000/svg">
<g clip-path="url(#clip0_40_312)">
<circle cx="47" cy="33" r="33" fill="#EAF9FF"/>
<path d="M52.0459 17.0321H50.3404C49.4877 17.0321 48.79 16.3329 48.79 15.4783V13.7691C48.79 12.9145 49.4877 12.2153 50.3404 12.2153H52.0459C52.8987 12.2153 53.5964 12.9145 53.5964 13.7691V15.4783C53.5964 16.3329 52.8987 17.0321 52.0459 17.0321Z" fill="#A7DAF9"/>
<path d="M40.6506 17.2652H36.9295C36.4643 17.2652 36.1542 16.9544 36.1542 16.4883V12.7591C36.1542 12.2929 36.4643 11.9822 36.9295 11.9822H40.6506C41.1157 11.9822 41.4258 12.2929 41.4258 12.7591V16.4883C41.4258 16.9544 41.1157 17.2652 40.6506 17.2652Z" fill="#A7DAF9"/>
<path d="M63.5965 17.0323C62.2786 17.0323 61.1933 15.9446 61.1933 14.6238C61.1933 13.3031 62.2786 12.2154 63.5965 12.2154C64.9144 12.2154 65.9997 13.3031 65.9997 14.6238C65.9997 15.9446 64.9144 17.0323 63.5965 17.0323Z" fill="#A7DAF9"/>
<path d="M58.2481 23.2475H56.5426C55.6898 23.2475 54.9921 22.5482 54.9921 21.6936V19.9844C54.9921 19.1298 55.6898 18.4306 56.5426 18.4306H58.2481C59.1009 18.4306 59.7986 19.1298 59.7986 19.9844V21.6936C59.7986 22.5482 59.1009 23.2475 58.2481 23.2475Z" fill="#A7DAF9"/>
<path d="M57.3953 10.8169C56.0774 10.8169 54.9921 9.72919 54.9921 8.40844C54.9921 7.08768 56.0774 6 57.3953 6C58.7132 6 59.7985 7.08768 59.7985 8.40844C59.7985 9.72919 58.7132 10.8169 57.3953 10.8169Z" fill="#A7DAF9"/>
<path d="M58.2481 35.6781H56.5426C55.6898 35.6781 54.9921 34.9789 54.9921 34.1242V32.415C54.9921 31.5604 55.6898 30.8612 56.5426 30.8612H58.2481C59.1009 30.8612 59.7986 31.5604 59.7986 32.415V34.1242C59.7986 34.9789 59.1009 35.6781 58.2481 35.6781Z" fill="#A7DAF9"/>
<path d="M44.8522 34.1231V29.9278C44.8522 29.4617 44.5421 29.1509 44.077 29.1509H39.5806C39.1155 29.1509 38.8054 28.8401 38.8054 28.374V24.0233C38.8054 23.5571 38.4953 23.2463 38.0302 23.2463H33.999C33.5338 23.2463 33.2237 23.5571 33.2237 24.0233V28.374C33.2237 28.8401 32.9136 29.1509 32.4485 29.1509H28.1072C27.6421 29.1509 27.332 29.4617 27.332 29.9278V33.9678C27.332 34.4339 27.6421 34.7447 28.1072 34.7447H32.4485C32.9136 34.7447 33.2237 35.0554 33.2237 35.5216V40.0277C33.2237 40.4938 33.5338 40.8046 33.999 40.8046H38.1852C38.6504 40.8046 38.9604 40.4938 38.9604 40.0277V35.677C38.9604 35.2108 39.2705 34.9001 39.7357 34.9001H44.077C44.5421 34.9001 44.8522 34.5893 44.8522 34.1231Z" fill="#A7DAF9"/>
<path d="M53.0529 29.6959H49.3318C48.8667 29.6959 48.5566 29.3852 48.5566 28.919V25.1898C48.5566 24.7237 48.8667 24.4129 49.3318 24.4129H53.0529C53.5181 24.4129 53.8282 24.7237 53.8282 25.1898V28.919C53.8282 29.3852 53.5181 29.6959 53.0529 29.6959Z" fill="#A7DAF9"/>
<path d="M46.8518 23.4028H43.1306C42.6655 23.4028 42.3554 23.092 42.3554 22.6259V18.8967C42.3554 18.4305 42.6655 18.1198 43.1306 18.1198H46.8518C47.3169 18.1198 47.627 18.4305 47.627 18.8967V22.6259C47.627 23.092 47.3169 23.4028 46.8518 23.4028Z" fill="#A7DAF9"/>
<path d="M8.67266 29.1288L8.6727 29.1288L8.67642 29.12C11.5872 22.2552 18.8452 19.1526 26.7373 19.1739V19.9732H22.6695C22.2219 19.9732 21.7726 20.1286 21.4338 20.4711C21.0959 20.8125 20.9456 21.2613 20.9456 21.7049V25.9734H16.733C16.2853 25.9734 15.836 26.1289 15.4972 26.4713C15.1594 26.8128 15.009 27.2616 15.009 27.7052V32.0956C15.009 32.5392 15.1594 32.988 15.4972 33.3294C15.836 33.6719 16.2853 33.8274 16.733 33.8274H20.9456V37.9495C20.9456 38.3931 21.0959 38.8419 21.4338 39.1834C21.7726 39.5258 22.2219 39.6813 22.6695 39.6813H26.7373V43.9498C26.7373 44.3934 26.8877 44.8422 27.2256 45.1836C27.5643 45.5261 28.0136 45.6815 28.4613 45.6815H32.5291V49.6574C32.5291 50.101 32.6795 50.5497 33.0173 50.8912C33.3561 51.2336 33.8054 51.3891 34.2531 51.3891H38.5969C39.0446 51.3891 39.4938 51.2336 39.8326 50.8912C40.1705 50.5497 40.3209 50.101 40.3209 49.6574V45.5352H49.4654C48.7184 50.26 46.9363 54.4631 43.8842 57.7458C43.4492 58.1855 42.9751 58.6634 42.5078 59.0687C41.833 59.6402 41.4748 60.4736 41.5845 61.3998L42.0096 65.819C34.35 67.9731 25.6741 71.8064 20.2669 74.4025V66.1947C20.2669 65.2045 19.5262 64.041 18.2099 64.0241C17.488 63.9874 16.2618 63.9156 15.0873 63.7749C14.4933 63.7038 13.9298 63.617 13.4601 63.5126C12.9679 63.4033 12.6752 63.2947 12.5496 63.2199C11.7861 62.7433 11.0701 61.9426 10.4205 60.932C9.77485 59.9276 9.23227 58.7748 8.7942 57.6678C8.35739 56.5641 8.03291 55.5275 7.81762 54.7659C7.71019 54.3859 7.63048 54.0762 7.57799 53.8632C7.55176 53.7567 7.53236 53.6745 7.51973 53.6199L7.50585 53.5591L7.50272 53.5451L7.5021 53.5423L7.50209 53.5422L7.50204 53.542C7.49052 53.4892 7.47474 53.4374 7.45485 53.3871C7.29454 52.9821 7.00488 52.6798 6.73319 52.4775C6.45832 52.2728 6.12522 52.1126 5.78199 52.0432C5.74973 52.0367 5.71717 52.0318 5.68442 52.0285L2.79456 51.7364C2.3664 51.6872 1.91744 51.4924 1.56228 51.195C1.03627 50.644 0.875756 49.8848 1.09695 49.2588L1.10377 49.2388C1.62576 47.6561 2.43458 45.8571 3.26665 44.0928C3.47236 43.6566 3.68032 43.221 3.88521 42.7917C4.4956 41.5129 5.07886 40.291 5.49482 39.2819C5.87549 38.3585 6.18305 37.4274 6.41398 36.416L6.4147 36.4127C6.77009 34.8322 7.91197 30.8762 8.67266 29.1288Z" stroke="#05284A" stroke-width="2" stroke-linejoin="round"/>
</g>
<defs>
<clipPath id="clip0_40_312">
<rect width="80" height="76" fill="white"/>
</clipPath>
</defs>
</svg>
